<svg width="33" height="33" viewBox="0 0 33 33" fill="none" xmlns="http://www.w3.org/2000/svg">
<path d="M16.8333 3.21875C14.1963 3.21875 11.6184 4.00074 9.42574 5.46582C7.23308 6.93091 5.52411 9.01329 4.51495 11.4496C3.50578 13.886 3.24173 16.5669 3.7562 19.1533C4.27067 21.7397 5.54055 24.1155 7.40525 25.9802C9.26995 27.8449 11.6457 29.1148 14.2321 29.6292C16.8185 30.1437 19.4994 29.8796 21.9358 28.8705C24.3721 27.8613 26.4545 26.1523 27.9196 23.9597C29.3847 21.767 30.1667 19.1892 30.1667 16.5521C30.1628 13.017 28.7569 9.62787 26.2572 7.12822C23.7575 4.62856 20.3684 3.22257 16.8333 3.21875ZM16.8333 27.6632C14.6358 27.6632 12.4875 27.0115 10.6603 25.7906C8.83312 24.5697 7.40898 22.8344 6.56801 20.8041C5.72704 18.7738 5.507 16.5398 5.93573 14.3844C6.36445 12.2291 7.42268 10.2493 8.9766 8.69534C10.5305 7.14142 12.5103 6.08319 14.6657 5.65447C16.821 5.22574 19.0551 5.44578 21.0854 6.28676C23.1157 7.12773 24.851 8.55187 26.0719 10.3791C27.2928 12.2063 27.9444 14.3545 27.9444 16.5521C27.9412 19.4979 26.7695 22.3222 24.6865 24.4053C22.6035 26.4883 19.7792 27.66 16.8333 27.6632ZM23.1744 17.7976C22.9661 17.5893 22.6835 17.4723 22.3889 17.4723C22.0943 17.4723 21.8117 17.5893 21.6033 17.7976L17.9445 21.4554L17.9367 9.88542C17.9367 9.59073 17.8196 9.30812 17.6112 9.09974C17.4029 8.89137 17.1202 8.77431 16.8256 8.77431C16.5309 8.77431 16.2483 8.89137 16.0399 9.09974C15.8315 9.30812 15.7144 9.59073 15.7144 9.88542L15.7222 21.4565L12.0633 17.7976C11.9631 17.6882 11.842 17.5999 11.7071 17.5381C11.5722 17.4762 11.4263 17.442 11.2779 17.4374C11.1296 17.4329 10.9819 17.4581 10.8434 17.5116C10.705 17.5651 10.5787 17.6458 10.472 17.7489C10.3652 17.852 10.2802 17.9754 10.222 18.1119C10.1637 18.2484 10.1334 18.3952 10.1328 18.5436C10.1322 18.692 10.1613 18.839 10.2185 18.9759C10.2756 19.1129 10.3597 19.237 10.4656 19.341L10.4922 19.3688L14.4756 23.3532C14.7851 23.6628 15.1526 23.9084 15.557 24.0759C15.9615 24.2435 16.395 24.3297 16.8328 24.3297C17.2706 24.3297 17.7041 24.2435 18.1085 24.0759C18.513 23.9084 18.8805 23.6628 19.19 23.3532L23.1744 19.3688C23.3828 19.1604 23.4998 18.8778 23.4998 18.5832C23.4998 18.2886 23.3828 18.006 23.1744 17.7976Z" fill="white"/>
</svg>
