<svg width="16" height="19" viewBox="0 0 16 19" fill="none" xmlns="http://www.w3.org/2000/svg">
<g clip-path="url(#clip0_1617_977)">
<path d="M3.27881 11.4329C2.80253 10.1824 2.65827 9.02478 2.57998 8.5922C2.50096 8.15962 2.26898 7.62194 1.4701 6.51368C0.670501 5.40543 0.19567 4.56458 0.0325601 4.24498C-0.0841542 4.01546 0.13985 3.70014 0.421849 3.70014C0.532039 3.70014 0.650928 3.74805 0.762568 3.86817C1.15766 4.29574 2.56113 6.01747 2.76918 6.22196C2.86487 6.31563 3.05481 6.42574 3.19762 6.42574C3.3658 6.42574 3.46657 6.27201 3.26504 5.7565C2.89387 4.8034 1.88984 2.69699 1.68976 2.19363C1.40703 1.47863 1.82459 1.41928 1.82459 1.41928C1.82459 1.41928 1.94276 1.33062 2.09282 1.33062C2.20736 1.33062 2.3393 1.3821 2.45094 1.56514C2.70829 1.98628 4.19295 4.93996 4.37853 5.20237C4.46988 5.33107 4.57209 5.42187 4.65038 5.42187C4.72868 5.42187 4.78885 5.3232 4.78087 5.06366C4.7642 4.556 4.55759 1.53583 4.43653 0.542688C4.39376 0.188761 4.77797 0.0114401 4.95631 0C4.96138 0 4.96573 0 4.9708 0C5.14986 0 5.42389 0.202346 5.49058 0.414702C5.55945 0.632778 6.16694 4.38583 6.22929 4.85631C6.26336 5.11299 6.40472 5.29961 6.54463 5.29961C6.66135 5.29961 6.77734 5.17019 6.82808 4.84415C6.93972 4.12772 7.54939 1.22909 7.60594 0.860865C7.65161 0.562708 7.83212 0.462607 8.03437 0.462607C8.08149 0.462607 8.12934 0.468327 8.17718 0.477622C8.43164 0.527673 8.62084 0.712144 8.60779 1.00387C8.59547 1.27628 8.2881 4.92709 8.34102 6.16548C7.82922 6.38856 6.01398 6.77395 5.76026 6.85689C5.50653 6.93983 5.2615 7.09427 5.10274 7.38742C4.95051 7.6677 4.92948 7.98945 5.04475 8.29261C5.26368 8.87177 5.8835 9.14275 6.06763 9.21211C6.08213 9.21783 6.09808 9.22426 6.1133 9.22998C6.36775 9.33151 6.64903 9.42303 7.28479 9.42303C7.59651 9.42303 7.98508 9.40158 8.47078 9.35868C8.38379 9.56961 8.2562 9.81772 8.18008 9.96644L8.11266 10.0994C8.00972 10.3025 7.71468 10.7315 7.23115 11.3814C7.12458 11.5244 7.00932 11.6782 6.88463 11.8426C6.70267 12.0828 6.20972 12.9008 5.39852 12.9494C4.98748 12.9737 4.52932 12.8207 4.36839 12.7421C4.06971 12.5962 3.58836 12.2459 3.27881 11.4322V11.4329Z" fill="#6C9AEE"/>
<path d="M15.9548 9.06841C15.6489 10.369 15.119 11.4122 14.9421 11.8155C14.7645 12.2187 14.6564 12.7929 14.6985 14.1528C14.742 15.5127 14.6644 16.4723 14.6217 16.8276C14.5992 17.0092 14.4078 17.1329 14.215 17.1329C14.0221 17.1329 13.846 17.0214 13.8025 16.7425C13.714 16.1705 13.5118 13.9705 13.4531 13.6873C13.419 13.5215 13.2718 13.2498 13.1109 13.2498C12.9956 13.2498 12.8731 13.3885 12.7789 13.8032C12.5527 14.7992 12.2062 17.1022 12.0895 17.6299C11.9771 18.1375 11.7661 18.2197 11.6415 18.2197C11.582 18.2197 11.5421 18.2012 11.5421 18.2012C11.5421 18.2012 11.5371 18.2012 11.5284 18.2012C11.4522 18.2012 11.0825 18.1783 11.1028 17.7378C11.1253 17.2466 11.5479 13.9762 11.54 13.6566C11.5356 13.465 11.4863 13.3105 11.3884 13.3105C11.3232 13.3105 11.2369 13.3792 11.1275 13.5522C10.8556 13.9841 9.33254 16.6117 8.87511 17.5047C8.78231 17.6856 8.60688 17.7436 8.44377 17.7436C8.32053 17.7436 8.20527 17.7107 8.13857 17.6728C7.98344 17.5848 7.86092 17.2552 7.92544 17.0364C7.99069 16.8169 9.59279 13.3606 9.80447 12.9344C9.94583 12.6506 9.89436 12.3667 9.69863 12.3667C9.60004 12.3667 9.4652 12.4382 9.29919 12.617C8.80334 13.1525 6.66841 15.2332 6.41468 15.5085C6.29869 15.6343 6.1827 15.6851 6.07324 15.6851C5.94348 15.6851 5.82314 15.6143 5.7231 15.5163C5.53969 15.3347 5.48532 15.0787 5.66003 14.8428C5.83474 14.6068 8.47422 11.32 8.8954 10.4898C9.29412 9.70333 9.99223 8.48425 8.68372 8.48425C8.60978 8.48425 8.53004 8.48783 8.44305 8.49641C7.92617 8.5436 7.55573 8.56219 7.28315 8.56219C6.69668 8.56219 6.56039 8.47639 6.37771 8.40775C6.10949 8.30693 5.74339 8.04095 5.87461 7.79856C5.9297 7.69703 6.07831 7.67201 6.24722 7.6384C6.55242 7.57691 7.75798 7.30664 8.60616 6.98274C8.80624 6.90624 9.62106 6.49011 9.92771 6.34711C10.7251 5.97673 11.6936 5.58634 12.0213 5.527C12.2112 5.49268 12.4331 5.47266 12.6535 5.47266C12.8137 5.47266 13.9431 5.5699 14.9529 6.54016C15.9628 7.51042 16.0969 8.45565 15.9526 9.07056L15.9548 9.06841Z" fill="#6C9AEE"/>
</g>
<defs>
<clipPath id="clip0_1617_977">
<rect width="16" height="18.2176" fill="white"/>
</clipPath>
</defs>
</svg>
