<svg width="140" height="26" viewBox="0 0 140 26" fill="none" xmlns="http://www.w3.org/2000/svg">
<g clip-path="url(#clip0_467_213)">
<path d="M87.4926 0.731445V25.3113H82.7621V12.8753L75.0182 22.1164L67.3086 12.8753V25.3113H62.5781V0.731445H62.8786L75.0182 14.9194L87.1921 0.731445H87.4926Z" fill="#A2A2A2"/>
<path d="M138.979 7.54204C138.979 8.04016 138.875 8.56406 138.678 9.13089C138.472 9.68913 138.197 10.213 137.854 10.6854C137.502 11.1577 137.081 11.5528 136.583 11.8792C136.085 12.2055 135.544 12.3773 134.961 12.403C135.57 12.446 136.171 12.6177 136.772 12.9269C137.373 13.2275 137.905 13.6398 138.378 14.1465C138.85 14.6618 139.236 15.2544 139.545 15.9243C139.846 16.5941 140 17.307 140 18.0713C140 19.4111 139.794 20.5448 139.391 21.4723C138.987 22.3999 138.429 23.147 137.734 23.7225C137.038 24.2893 136.223 24.7015 135.278 24.942C134.342 25.1911 133.347 25.3113 132.291 25.3113H120.864V0.697144H131.75C132.737 0.697144 133.673 0.791617 134.557 0.98056C135.433 1.1695 136.205 1.52162 136.858 2.02833C137.51 2.53505 138.026 3.2307 138.412 4.1153C138.79 5.00849 138.979 6.15073 138.979 7.54204ZM125.594 10.7197H131.406C131.878 10.7197 132.291 10.6338 132.643 10.4449C132.995 10.2645 133.286 10.0241 133.518 9.73207C133.759 9.44007 133.93 9.10512 134.059 8.73583C134.179 8.36653 134.248 7.99722 134.248 7.63651C134.248 7.2758 134.179 6.92369 134.042 6.58874C133.905 6.2538 133.724 5.96179 133.501 5.71273C133.278 5.46367 133.012 5.25755 132.711 5.10296C132.411 4.94837 132.085 4.86249 131.75 4.86249H125.594V10.7197ZM132.282 21.146C132.686 21.146 133.072 21.0515 133.432 20.8625C133.793 20.6736 134.111 20.416 134.377 20.0896C134.643 19.7632 134.858 19.4025 135.021 19.0161C135.175 18.621 135.261 18.2259 135.261 17.8223C135.261 16.9892 134.952 16.2936 134.334 15.7353C133.716 15.1771 132.866 14.8937 131.784 14.8937H125.594V21.146H132.282Z" fill="#A2A2A2"/>
<path d="M100.533 5.5751C100.697 5.48921 100.851 5.40333 101.014 5.31745C101.993 4.86226 103.04 4.63038 104.165 4.63038C105.29 4.63038 106.337 4.86226 107.316 5.31745C108.295 5.78122 109.153 6.39099 109.883 7.14676C110.613 7.91112 111.196 8.80431 111.617 9.81773C112.046 10.8397 112.261 11.8961 112.261 12.9954C112.261 14.1119 112.046 15.1854 111.617 16.1903C111.591 16.2504 111.566 16.3019 111.54 16.362L115.017 19.7716C115.377 19.2048 115.704 18.6122 115.978 17.9766C116.657 16.4307 116.991 14.7732 116.991 13.004C116.991 11.252 116.657 9.60302 115.978 8.04854C115.3 6.49405 114.382 5.13709 113.223 3.97767C112.063 2.82683 110.707 1.90788 109.145 1.23799C107.591 0.568098 105.925 0.233154 104.139 0.233154C102.379 0.233154 100.722 0.568098 99.1684 1.23799C98.4644 1.54717 97.8034 1.90788 97.1766 2.31153L100.533 5.5751Z" fill="#A2A2A2"/>
<path d="M110.209 18.5092C110.106 18.6295 110.003 18.7497 109.9 18.8699C109.17 19.6429 108.312 20.2613 107.333 20.7164C106.354 21.1716 105.307 21.4035 104.182 21.4035C103.058 21.4035 102.002 21.1716 101.031 20.7164C100.053 20.2613 99.2027 19.6429 98.4644 18.8699C97.7347 18.097 97.1509 17.2038 96.7302 16.199C96.3009 15.1941 96.0863 14.1292 96.0863 13.0041C96.0863 11.9048 96.3009 10.8484 96.7302 9.82643C97.1594 8.80442 97.7347 7.91123 98.4644 7.15546C98.4902 7.1297 98.5159 7.10393 98.5417 7.07817L95.2535 3.85754C95.2106 3.90049 95.1677 3.93484 95.1247 3.97778C93.9657 5.12862 93.0471 6.48557 92.3689 8.04865C91.6906 9.60314 91.3558 11.2607 91.3558 13.0041C91.3558 14.7733 91.6906 16.4309 92.3689 17.9768C93.0471 19.5227 93.9657 20.871 95.1247 22.0305C96.2837 23.1813 97.6402 24.1002 99.2027 24.7701C100.757 25.44 102.414 25.775 104.174 25.775C105.951 25.775 107.625 25.44 109.179 24.7701C110.733 24.1002 112.089 23.1813 113.257 22.0305C113.351 21.936 113.429 21.8329 113.523 21.7385L110.209 18.5092Z" fill="#A2A2A2"/>
<path d="M18.1235 7.54216C18.1235 8.04029 18.0205 8.56418 17.823 9.13101C17.617 9.68925 17.3422 10.2131 16.9988 10.6855C16.6468 11.1579 16.2262 11.5529 15.7282 11.8793C15.2303 12.2056 14.6894 12.3774 14.1056 12.4032C14.7152 12.4461 15.3161 12.6179 15.9171 12.9271C16.5181 13.2276 17.0503 13.6399 17.5225 14.1466C17.9947 14.6619 18.3811 15.2545 18.6901 15.9244C18.9906 16.5943 19.1451 17.3071 19.1451 18.0715C19.1451 19.4112 18.9391 20.5449 18.5356 21.4724C18.1321 22.4 17.574 23.1472 16.8786 23.7226C16.1832 24.2894 15.3676 24.7017 14.4232 24.9421C13.4875 25.1912 12.4916 25.3114 11.4356 25.3114H0V0.697266H10.8861C11.8734 0.697266 12.8092 0.791739 13.6935 0.980682C14.5692 1.16963 15.3419 1.52174 15.9944 2.02846C16.6468 2.53517 17.162 3.23082 17.5483 4.11542C17.9346 5.00861 18.1235 6.15085 18.1235 7.54216ZM4.73907 10.7198H10.5513C11.0235 10.7198 11.4356 10.634 11.7876 10.445C12.1396 10.2647 12.4315 10.0242 12.6633 9.73219C12.9037 9.44019 13.0839 9.10525 13.2041 8.73595C13.3243 8.36665 13.393 7.99735 13.393 7.63664C13.393 7.27593 13.3243 6.92381 13.187 6.58886C13.0496 6.25392 12.8693 5.96191 12.6461 5.71285C12.4229 5.46379 12.1567 5.25767 11.8563 5.10308C11.5558 4.94849 11.2295 4.86261 10.8947 4.86261H4.73907V10.7198ZM11.427 21.1461C11.8305 21.1461 12.2168 21.0516 12.5774 20.8627C12.938 20.6737 13.2557 20.4161 13.5218 20.0897C13.7879 19.7634 14.0026 19.4026 14.1657 19.0162C14.3202 18.6211 14.4061 18.226 14.4061 17.8224C14.4061 16.9893 14.097 16.2937 13.4789 15.7354C12.8607 15.1772 12.0108 14.8938 10.929 14.8938H4.73907V21.1461H11.427Z" fill="#383838"/>
<path d="M28.5717 0.731567H23.8412V25.3114H28.5717V0.731567Z" fill="#383838"/>
<path d="M51.2539 19.2135C50.6014 19.8232 49.8717 20.3299 49.0475 20.7164C48.0687 21.1802 47.0213 21.4035 45.8967 21.4035C44.772 21.4035 43.7246 21.1716 42.7459 20.7164C41.7671 20.2612 40.9086 19.6429 40.1789 18.8699C39.4491 18.097 38.8653 17.2038 38.4447 16.199C38.0154 15.1941 37.8008 14.1292 37.8008 13.0041C37.8008 11.9048 38.0154 10.8484 38.4447 9.82641C38.7537 9.08782 39.1486 8.41793 39.6208 7.80816L36.3069 4.56177C35.4055 5.58378 34.6585 6.73461 34.0919 8.04004C33.4137 9.60312 33.0789 11.2521 33.0789 13.0041C33.0789 14.7733 33.4137 16.4308 34.0919 17.9767C34.7701 19.5226 35.6888 20.871 36.8478 22.0304C38.0068 23.1813 39.3633 24.1002 40.9172 24.7701C42.4711 25.44 44.1281 25.7749 45.8881 25.7749C47.6652 25.7749 49.3394 25.44 50.8933 24.7701C52.2669 24.1775 53.4775 23.3874 54.542 22.4169L51.2539 19.2135Z" fill="#383838"/>
<path d="M41.4065 6.09928C41.8272 5.80727 42.2651 5.54103 42.7458 5.31774C43.7246 4.86255 44.772 4.63067 45.8966 4.63067C47.0213 4.63067 48.0687 4.86255 49.0474 5.31774C50.0262 5.78151 50.8847 6.39127 51.6144 7.14705C52.3442 7.91141 52.928 8.79601 53.3487 9.81802C53.7779 10.84 53.9926 11.8964 53.9926 12.9957C53.9926 14.1122 53.7779 15.1771 53.3487 16.1906C53.1941 16.5685 53.0052 16.9206 52.7992 17.2641L56.1818 20.5792C56.7742 19.7805 57.2893 18.9217 57.7014 17.9769C58.3796 16.431 58.7145 14.7735 58.7145 13.0043C58.7145 11.2523 58.3796 9.60331 57.7014 8.04024C57.0231 6.48575 56.1045 5.12879 54.9455 3.96937C53.7865 2.81853 52.43 1.89958 50.8761 1.22969C49.3222 0.5598 47.648 0.224854 45.8709 0.224854C44.1109 0.224854 42.454 0.5598 40.9 1.22969C39.8784 1.6677 38.9598 2.22594 38.1012 2.87006L41.4065 6.09928Z" fill="#383838"/>
</g>
<defs>
<clipPath id="clip0_467_213">
<rect width="140" height="25.5503" fill="white" transform="translate(0 0.224854)"/>
</clipPath>
</defs>
</svg>
