<svg width="1229" height="129" viewBox="0 0 1229 129" fill="none" xmlns="http://www.w3.org/2000/svg">
<g clip-path="url(#clip0_425_2416)">
<path d="M448.458 126.302L448.451 132.075" stroke="#BCBCBC" stroke-width="1.2" stroke-miterlimit="10"/>
<path d="M458.082 120.541L458.067 132.087" stroke="#BCBCBC" stroke-width="1.2" stroke-miterlimit="10"/>
<path d="M467.713 109.092L467.684 132.1" stroke="#BCBCBC" stroke-width="1.2" stroke-miterlimit="10"/>
<path d="M477.338 103.411L477.301 132.108" stroke="#BCBCBC" stroke-width="1.2" stroke-miterlimit="10"/>
<path d="M486.96 99.776L486.919 132.123" stroke="#BCBCBC" stroke-width="1.2" stroke-miterlimit="10"/>
<path d="M496.58 97.4098L496.536 132.134" stroke="#BCBCBC" stroke-width="1.2" stroke-miterlimit="10"/>
<path d="M506.198 95.8916L506.152 132.144" stroke="#BCBCBC" stroke-width="1.2" stroke-miterlimit="10"/>
<path d="M515.817 94.9673L515.769 132.153" stroke="#BCBCBC" stroke-width="1.2" stroke-miterlimit="10"/>
<path d="M525.435 94.3005L525.386 132.166" stroke="#BCBCBC" stroke-width="1.2" stroke-miterlimit="10"/>
<path d="M535.051 94.3127L535.003 132.178" stroke="#BCBCBC" stroke-width="1.2" stroke-miterlimit="10"/>
<path d="M544.667 95.598L544.62 132.19" stroke="#BCBCBC" stroke-width="1.2" stroke-miterlimit="10"/>
<path d="M554.283 95.0155L554.236 132.202" stroke="#BCBCBC" stroke-width="1.2" stroke-miterlimit="10"/>
<path d="M563.901 93.5814L563.852 132.211" stroke="#BCBCBC" stroke-width="1.2" stroke-miterlimit="10"/>
<path d="M573.521 91.8098L573.47 132.222" stroke="#BCBCBC" stroke-width="1.2" stroke-miterlimit="10"/>
<path d="M583.302 89.1062L583.247 132.235" stroke="#BCBCBC" stroke-width="1.2" stroke-miterlimit="10"/>
<path d="M592.924 85.4666L592.864 132.246" stroke="#BCBCBC" stroke-width="1.2" stroke-miterlimit="10"/>
<path d="M602.547 80.8949L602.481 132.259" stroke="#BCBCBC" stroke-width="1.2" stroke-miterlimit="10"/>
<path d="M612.169 75.1302L612.096 132.268" stroke="#BCBCBC" stroke-width="1.2" stroke-miterlimit="10"/>
<path d="M621.795 67.7587L621.713 132.283" stroke="#BCBCBC" stroke-width="1.2" stroke-miterlimit="10"/>
<path d="M631.424 59.1096L631.331 132.293" stroke="#BCBCBC" stroke-width="1.2" stroke-miterlimit="10"/>
<path d="M641.057 45.6199L640.946 132.303" stroke="#BCBCBC" stroke-width="1.2" stroke-miterlimit="10"/>
<path d="M650.687 35.9545L650.564 132.316" stroke="#BCBCBC" stroke-width="1.2" stroke-miterlimit="10"/>
<path d="M660.312 29.9366L660.181 132.326" stroke="#BCBCBC" stroke-width="1.2" stroke-miterlimit="10"/>
<path d="M669.934 25.7024L669.798 132.337" stroke="#BCBCBC" stroke-width="1.2" stroke-miterlimit="10"/>
<path d="M679.555 22.5731L679.415 132.349" stroke="#BCBCBC" stroke-width="1.2" stroke-miterlimit="10"/>
<path d="M689.175 20.2953L689.032 132.363" stroke="#BCBCBC" stroke-width="1.2" stroke-miterlimit="10"/>
<path d="M698.793 18.6924L698.648 132.373" stroke="#BCBCBC" stroke-width="1.2" stroke-miterlimit="10"/>
<path d="M708.411 17.7684L708.265 132.383" stroke="#BCBCBC" stroke-width="1.2" stroke-miterlimit="10"/>
<path d="M718.029 17.1859L717.882 132.395" stroke="#BCBCBC" stroke-width="1.2" stroke-miterlimit="10"/>
<path d="M727.646 17.7925L727.499 132.407" stroke="#BCBCBC" stroke-width="1.2" stroke-miterlimit="10"/>
<path d="M737.259 18.7366L737.114 132.418" stroke="#BCBCBC" stroke-width="1.2" stroke-miterlimit="10"/>
<path d="M746.875 20.3635L746.732 132.432" stroke="#BCBCBC" stroke-width="1.2" stroke-miterlimit="10"/>
<path d="M756.487 22.9186L756.348 132.44" stroke="#BCBCBC" stroke-width="1.2" stroke-miterlimit="10"/>
<path d="M766.101 26.4978L765.966 132.453" stroke="#BCBCBC" stroke-width="1.2" stroke-miterlimit="10"/>
<path d="M775.711 31.7725L775.583 132.464" stroke="#BCBCBC" stroke-width="1.2" stroke-miterlimit="10"/>
<path d="M785.317 39.8512L785.199 132.477" stroke="#BCBCBC" stroke-width="1.2" stroke-miterlimit="10"/>
<path d="M794.921 50.3883L794.816 132.487" stroke="#BCBCBC" stroke-width="1.2" stroke-miterlimit="10"/>
<path d="M804.526 59.1458L804.433 132.499" stroke="#BCBCBC" stroke-width="1.2" stroke-miterlimit="10"/>
<path d="M814.134 66.6259L814.05 132.508" stroke="#BCBCBC" stroke-width="1.2" stroke-miterlimit="10"/>
<path d="M823.742 72.752L823.666 132.522" stroke="#BCBCBC" stroke-width="1.2" stroke-miterlimit="10"/>
<path d="M833.354 77.6892L833.284 132.535" stroke="#BCBCBC" stroke-width="1.2" stroke-miterlimit="10"/>
<path d="M843.126 81.3489L843.061 132.544" stroke="#BCBCBC" stroke-width="1.2" stroke-miterlimit="10"/>
<path d="M852.74 83.9922L852.678 132.555" stroke="#BCBCBC" stroke-width="1.2" stroke-miterlimit="10"/>
<path d="M862.354 85.7036L862.294 132.568" stroke="#BCBCBC" stroke-width="1.2" stroke-miterlimit="10"/>
<path d="M871.968 86.4789L871.909 132.58" stroke="#BCBCBC" stroke-width="1.2" stroke-miterlimit="10"/>
<path d="M881.586 86.491L881.527 132.592" stroke="#BCBCBC" stroke-width="1.2" stroke-miterlimit="10"/>
<path d="M891.204 85.4824L891.144 132.602" stroke="#BCBCBC" stroke-width="1.2" stroke-miterlimit="10"/>
<path d="M900.823 83.8798L900.76 132.612" stroke="#BCBCBC" stroke-width="1.2" stroke-miterlimit="10"/>
<path d="M910.442 81.598L910.377 132.623" stroke="#BCBCBC" stroke-width="1.2" stroke-miterlimit="10"/>
<path d="M920.064 78.4685L919.994 132.635" stroke="#BCBCBC" stroke-width="1.2" stroke-miterlimit="10"/>
<path d="M929.684 75.765L929.611 132.648" stroke="#BCBCBC" stroke-width="1.2" stroke-miterlimit="10"/>
<path d="M939.304 73.399L939.228 132.659" stroke="#BCBCBC" stroke-width="1.2" stroke-miterlimit="10"/>
<path d="M948.922 72.2218L948.845 132.671" stroke="#BCBCBC" stroke-width="1.2" stroke-miterlimit="10"/>
<path d="M958.54 71.7236L958.462 132.682" stroke="#BCBCBC" stroke-width="1.2" stroke-miterlimit="10"/>
<path d="M968.156 72.2458L968.079 132.695" stroke="#BCBCBC" stroke-width="1.2" stroke-miterlimit="10"/>
<path d="M977.77 73.4431L977.694 132.703" stroke="#BCBCBC" stroke-width="1.2" stroke-miterlimit="10"/>
<path d="M987.384 75.8335L987.311 132.717" stroke="#BCBCBC" stroke-width="1.2" stroke-miterlimit="10"/>
<path d="M996.996 79.1555L996.928 132.727" stroke="#BCBCBC" stroke-width="1.2" stroke-miterlimit="10"/>
<path d="M1006.61 83.6667L1006.55 132.739" stroke="#BCBCBC" stroke-width="1.2" stroke-miterlimit="10"/>
<path d="M1016.22 89.1985L1016.16 132.752" stroke="#BCBCBC" stroke-width="1.2" stroke-miterlimit="10"/>
<path d="M1025.83 95.405L1025.78 132.761" stroke="#BCBCBC" stroke-width="1.2" stroke-miterlimit="10"/>
<path d="M1035.44 101.021L1035.4 132.774" stroke="#BCBCBC" stroke-width="1.2" stroke-miterlimit="10"/>
<path d="M1045.05 105.617L1045.01 132.785" stroke="#BCBCBC" stroke-width="1.2" stroke-miterlimit="10"/>
<path d="M1054.66 109.108L1054.63 132.795" stroke="#BCBCBC" stroke-width="1.2" stroke-miterlimit="10"/>
<path d="M1064.27 111.072L1064.25 132.807" stroke="#BCBCBC" stroke-width="1.2" stroke-miterlimit="10"/>
<path d="M1073.89 112.02L1073.86 132.821" stroke="#BCBCBC" stroke-width="1.2" stroke-miterlimit="10"/>
<path d="M1083.51 111.438L1083.48 132.833" stroke="#BCBCBC" stroke-width="1.2" stroke-miterlimit="10"/>
<path d="M1093.13 110.088L1093.1 132.841" stroke="#BCBCBC" stroke-width="1.2" stroke-miterlimit="10"/>
<path d="M1102.9 107.979L1102.87 132.855" stroke="#BCBCBC" stroke-width="1.2" stroke-miterlimit="10"/>
<path d="M1112.53 105.018L1112.49 132.866" stroke="#BCBCBC" stroke-width="1.2" stroke-miterlimit="10"/>
<path d="M1122.15 101.632L1122.11 132.875" stroke="#BCBCBC" stroke-width="1.2" stroke-miterlimit="10"/>
<path d="M1131.77 99.0969L1131.72 132.887" stroke="#BCBCBC" stroke-width="1.2" stroke-miterlimit="10"/>
<path d="M1141.38 97.6667L1141.34 132.9" stroke="#BCBCBC" stroke-width="1.2" stroke-miterlimit="10"/>
<path d="M1151 97.1686L1150.96 132.911" stroke="#BCBCBC" stroke-width="1.2" stroke-miterlimit="10"/>
<path d="M1160.62 97.691L1160.57 132.925" stroke="#BCBCBC" stroke-width="1.2" stroke-miterlimit="10"/>
<path d="M1170.24 98.7194L1170.19 132.934" stroke="#BCBCBC" stroke-width="1.2" stroke-miterlimit="10"/>
<path d="M1179.85 100.599L1179.81 132.946" stroke="#BCBCBC" stroke-width="1.2" stroke-miterlimit="10"/>
<path d="M1189.46 103.496L1189.42 132.956" stroke="#BCBCBC" stroke-width="1.2" stroke-miterlimit="10"/>
<path d="M1199.07 107.328L1199.04 132.968" stroke="#BCBCBC" stroke-width="1.2" stroke-miterlimit="10"/>
<path d="M1208.69 112.434L1208.66 132.98" stroke="#BCBCBC" stroke-width="1.2" stroke-miterlimit="10"/>
<path d="M1218.29 119.83L1218.27 132.989" stroke="#BCBCBC" stroke-width="1.2" stroke-miterlimit="10"/>
<path d="M1227.9 125.446L1227.89 133.002" stroke="#BCBCBC" stroke-width="1.2" stroke-miterlimit="10"/>
</g>
<g clip-path="url(#clip1_425_2416)">
<path d="M10.1152 126.089L10.0459 180.463" stroke="#BCBCBC" stroke-width="1.2" stroke-miterlimit="10"/>
<path d="M19.7363 123.71L19.6639 180.478" stroke="#BCBCBC" stroke-width="1.2" stroke-miterlimit="10"/>
<path d="M29.3545 122.256L29.2802 180.486" stroke="#BCBCBC" stroke-width="1.2" stroke-miterlimit="10"/>
<path d="M38.9727 121.204L38.897 180.497" stroke="#BCBCBC" stroke-width="1.2" stroke-miterlimit="10"/>
<path d="M48.5889 121.216L48.5132 180.509" stroke="#BCBCBC" stroke-width="1.2" stroke-miterlimit="10"/>
<path d="M58.2021 123.224L58.1291 180.523" stroke="#BCBCBC" stroke-width="1.2" stroke-miterlimit="10"/>
<path d="M67.8203 122.304L67.746 180.534" stroke="#BCBCBC" stroke-width="1.2" stroke-miterlimit="10"/>
<path d="M77.4404 120.055L77.3633 180.544" stroke="#BCBCBC" stroke-width="1.2" stroke-miterlimit="10"/>
<path d="M87.0615 117.275L86.9808 180.557" stroke="#BCBCBC" stroke-width="1.2" stroke-miterlimit="10"/>
<path d="M96.8436 113.033L96.7574 180.568" stroke="#BCBCBC" stroke-width="1.2" stroke-miterlimit="10"/>
<path d="M106.468 107.328L106.375 180.581" stroke="#BCBCBC" stroke-width="1.2" stroke-miterlimit="10"/>
<path d="M116.095 100.157L115.992 180.589" stroke="#BCBCBC" stroke-width="1.2" stroke-miterlimit="10"/>
<path d="M125.721 91.1307L125.607 180.602" stroke="#BCBCBC" stroke-width="1.2" stroke-miterlimit="10"/>
<path d="M135.354 79.5773L135.225 180.615" stroke="#BCBCBC" stroke-width="1.2" stroke-miterlimit="10"/>
<path d="M144.988 66.0271L144.842 180.625" stroke="#BCBCBC" stroke-width="1.2" stroke-miterlimit="10"/>
<path d="M154.632 44.9006L154.459 180.637" stroke="#BCBCBC" stroke-width="1.2" stroke-miterlimit="10"/>
<path d="M164.266 29.7557L164.074 180.648" stroke="#BCBCBC" stroke-width="1.2" stroke-miterlimit="10"/>
<path d="M173.897 20.3273L173.693 180.658" stroke="#BCBCBC" stroke-width="1.2" stroke-miterlimit="10"/>
<path d="M183.522 13.6909L183.309 180.669" stroke="#BCBCBC" stroke-width="1.2" stroke-miterlimit="10"/>
<path d="M193.144 8.78589L192.924 180.683" stroke="#BCBCBC" stroke-width="1.2" stroke-miterlimit="10"/>
<path d="M202.767 5.20679L202.543 180.694" stroke="#BCBCBC" stroke-width="1.2" stroke-miterlimit="10"/>
<path d="M212.385 2.69189L212.158 180.705" stroke="#BCBCBC" stroke-width="1.2" stroke-miterlimit="10"/>
<path d="M222.005 1.24158L221.776 180.717" stroke="#BCBCBC" stroke-width="1.2" stroke-miterlimit="10"/>
<path d="M231.623 0.321533L231.393 180.727" stroke="#BCBCBC" stroke-width="1.2" stroke-miterlimit="10"/>
<path d="M241.237 1.26562L241.008 180.741" stroke="#BCBCBC" stroke-width="1.2" stroke-miterlimit="10"/>
<path d="M250.853 2.73596L250.626 180.749" stroke="#BCBCBC" stroke-width="1.2" stroke-miterlimit="10"/>
<path d="M260.467 5.27466L260.243 180.761" stroke="#BCBCBC" stroke-width="1.2" stroke-miterlimit="10"/>
<path d="M270.077 9.276L269.858 180.775" stroke="#BCBCBC" stroke-width="1.2" stroke-miterlimit="10"/>
<path d="M279.687 14.8719L279.475 180.787" stroke="#BCBCBC" stroke-width="1.2" stroke-miterlimit="10"/>
<path d="M289.295 23.1234L289.094 180.796" stroke="#BCBCBC" stroke-width="1.2" stroke-miterlimit="10"/>
<path d="M298.894 35.7655L298.709 180.808" stroke="#BCBCBC" stroke-width="1.2" stroke-miterlimit="10"/>
<path d="M308.491 52.2601L308.327 180.818" stroke="#BCBCBC" stroke-width="1.2" stroke-miterlimit="10"/>
<path d="M318.091 65.9669L317.944 180.831" stroke="#BCBCBC" stroke-width="1.2" stroke-miterlimit="10"/>
<path d="M327.69 77.6771L327.559 180.842" stroke="#BCBCBC" stroke-width="1.2" stroke-miterlimit="10"/>
<path d="M337.296 87.2622L337.177 180.855" stroke="#BCBCBC" stroke-width="1.2" stroke-miterlimit="10"/>
<path d="M346.904 94.9832L346.795 180.865" stroke="#BCBCBC" stroke-width="1.2" stroke-miterlimit="10"/>
<path d="M356.672 100.712L356.57 180.877" stroke="#BCBCBC" stroke-width="1.2" stroke-miterlimit="10"/>
<path d="M366.284 104.846L366.187 180.89" stroke="#BCBCBC" stroke-width="1.2" stroke-miterlimit="10"/>
<path d="M375.897 107.513L375.804 180.898" stroke="#BCBCBC" stroke-width="1.2" stroke-miterlimit="10"/>
<path d="M385.512 108.722L385.42 180.911" stroke="#BCBCBC" stroke-width="1.2" stroke-miterlimit="10"/>
<path d="M395.13 108.734L395.038 180.923" stroke="#BCBCBC" stroke-width="1.2" stroke-miterlimit="10"/>
<path d="M404.748 107.151L404.654 180.936" stroke="#BCBCBC" stroke-width="1.2" stroke-miterlimit="10"/>
<path d="M414.368 104.637L414.271 180.947" stroke="#BCBCBC" stroke-width="1.2" stroke-miterlimit="10"/>
<path d="M423.991 101.057L423.889 180.957" stroke="#BCBCBC" stroke-width="1.2" stroke-miterlimit="10"/>
<path d="M433.613 96.1482L433.505 180.967" stroke="#BCBCBC" stroke-width="1.2" stroke-miterlimit="10"/>
<path d="M443.235 91.906L443.122 180.979" stroke="#BCBCBC" stroke-width="1.2" stroke-miterlimit="10"/>
<path d="M452.857 88.1941L452.739 180.989" stroke="#BCBCBC" stroke-width="1.2" stroke-miterlimit="10"/>
<path d="M462.476 86.3461L462.355 181.003" stroke="#BCBCBC" stroke-width="1.2" stroke-miterlimit="10"/>
<path d="M472.094 85.5588L471.972 181.013" stroke="#BCBCBC" stroke-width="1.2" stroke-miterlimit="10"/>
<path d="M481.71 86.3704L481.589 181.027" stroke="#BCBCBC" stroke-width="1.2" stroke-miterlimit="10"/>
<path d="M491.324 88.2423L491.206 181.038" stroke="#BCBCBC" stroke-width="1.2" stroke-miterlimit="10"/>
<path d="M500.937 91.9744L500.823 181.047" stroke="#BCBCBC" stroke-width="1.2" stroke-miterlimit="10"/>
<path d="M510.546 97.1726L510.439 181.061" stroke="#BCBCBC" stroke-width="1.2" stroke-miterlimit="10"/>
<path d="M520.154 104.231L520.056 181.073" stroke="#BCBCBC" stroke-width="1.2" stroke-miterlimit="10"/>
<path d="M529.76 112.884L529.673 181.084" stroke="#BCBCBC" stroke-width="1.2" stroke-miterlimit="10"/>
<path d="M539.363 122.598L539.289 181.093" stroke="#BCBCBC" stroke-width="1.2" stroke-miterlimit="10"/>
<path d="M645.303 128.31L645.235 181.222" stroke="#BCBCBC" stroke-width="1.2" stroke-miterlimit="10"/>
<path d="M654.921 126.06L654.85 181.232" stroke="#BCBCBC" stroke-width="1.2" stroke-miterlimit="10"/>
<path d="M664.539 125.273L664.468 181.243" stroke="#BCBCBC" stroke-width="1.2" stroke-miterlimit="10"/>
<path d="M674.155 126.084L674.085 181.256" stroke="#BCBCBC" stroke-width="1.2" stroke-miterlimit="10"/>
<path d="M683.77 127.691L683.701 181.268" stroke="#BCBCBC" stroke-width="1.2" stroke-miterlimit="10"/>
</g>
<defs>
<clipPath id="clip0_425_2416">
<rect width="781.364" height="114.996" fill="white" transform="matrix(0.999999 0.00118795 -0.0012776 0.999999 447.637 16.8335)"/>
</clipPath>
<clipPath id="clip1_425_2416">
<rect width="781.364" height="180.072" fill="white" transform="matrix(0.999999 0.00118795 -0.0012776 0.999999 -38.7695 0.000244141)"/>
</clipPath>
</defs>
</svg>
